<svg xmlns="http://www.w3.org/2000/svg" width="203.178" height="91.102"><path d="M12.987 80.323V23.052h1.66v11.952h.166a18.87 18.87 0 0 1 2.407-5.188 18.228 18.228 0 0 1 3.735-4.108c1.438-1.162 3.084-2.061 4.938-2.697 1.853-.636 3.859-.955 6.017-.955 2.822 0 5.354.554 7.595 1.66a16.61 16.61 0 0 1 5.727 4.648c1.577 1.991 2.78 4.344 3.61 7.055.83 2.712 1.245 5.673 1.245 8.881 0 2.988-.402 5.839-1.204 8.549-.803 2.712-1.965 5.092-3.486 7.139a16.594 16.594 0 0 1-5.686 4.855c-2.27 1.188-4.87 1.784-7.802 1.784-4.538 0-8.272-1.175-11.205-3.527-2.934-2.352-4.897-5.464-5.893-9.338h-.166v26.561h-1.658zm26.436-17.14a16.038 16.038 0 0 0 5.104-4.814c1.328-1.963 2.31-4.177 2.946-6.64.636-2.462.955-4.938.955-7.429 0-2.767-.346-5.381-1.038-7.844-.692-2.461-1.715-4.647-3.071-6.557a14.729 14.729 0 0 0-5.146-4.523c-2.075-1.106-4.496-1.66-7.263-1.66-2.711 0-5.146.554-7.304 1.66a16.168 16.168 0 0 0-5.437 4.481c-1.467 1.882-2.587 4.067-3.361 6.558-.776 2.49-1.162 5.118-1.162 7.885 0 6.696 1.577 11.827 4.731 15.396 3.154 3.569 7.331 5.354 12.533 5.354 2.934 0 5.437-.622 7.513-1.867zm18.134 2.531V23.052h1.66v10.541h.166a16.477 16.477 0 0 1 1.826-4.523c.83-1.411 1.937-2.642 3.32-3.693 1.382-1.051 3.029-1.881 4.938-2.49 1.909-.608 4.136-.885 6.682-.83v1.66c-2.934-.166-5.465.236-7.595 1.203-2.131.969-3.888 2.297-5.271 3.984-1.384 1.688-2.407 3.639-3.071 5.852a23.563 23.563 0 0 0-.996 6.806v24.153h-1.659zm21.496-50.879V6.452h1.66v8.383h-1.66zm0 50.879V23.052h1.66v42.662h-1.66zm12.449-42.662v10.541h.166a15.73 15.73 0 0 1 1.826-4.564 14.98 14.98 0 0 1 3.071-3.652 14.019 14.019 0 0 1 4.025-2.448c1.465-.581 3.03-.872 4.69-.872 3.32-.11 6.1.734 8.342 2.531 2.24 1.799 3.721 4.275 4.439 7.429h.166c.83-2.987 2.462-5.395 4.897-7.221 2.435-1.826 5.312-2.739 8.632-2.739 2.6 0 4.758.388 6.475 1.162 1.714.775 3.098 1.841 4.149 3.195 1.05 1.356 1.798 2.988 2.241 4.897.441 1.909.664 4.025.664 6.35v28.054h-1.66V37.66c0-2.103-.18-4.012-.539-5.728-.361-1.714-.996-3.181-1.91-4.398-.912-1.217-2.131-2.158-3.651-2.822-1.522-.664-3.444-.996-5.769-.996-2.048 0-3.9.402-5.561 1.203a12.66 12.66 0 0 0-4.233 3.279c-1.162 1.384-2.048 2.975-2.656 4.772-.609 1.799-.913 3.693-.913 5.686v27.058h-1.66v-27.39c0-1.992-.152-3.873-.456-5.645-.305-1.771-.872-3.319-1.702-4.647-.829-1.328-1.991-2.379-3.485-3.154-1.494-.774-3.432-1.162-5.81-1.162-2.104 0-4.013.485-5.728 1.452a13.654 13.654 0 0 0-4.357 3.901c-1.19 1.633-2.104 3.527-2.739 5.686-.637 2.158-.955 4.428-.955 6.806v24.153h-1.66V23.052h1.661zm63.122 29.673c.635 2.463 1.618 4.606 2.946 6.433 1.327 1.825 3.042 3.266 5.146 4.315 2.103 1.052 4.676 1.577 7.719 1.577 4.482 0 8.203-1.175 11.164-3.527 2.959-2.352 4.8-5.879 5.52-10.583h1.659c-.608 4.98-2.572 8.84-5.892 11.579-3.32 2.739-7.416 4.108-12.285 4.108-3.319.055-6.156-.471-8.507-1.577-2.353-1.106-4.274-2.669-5.769-4.689-1.494-2.02-2.602-4.399-3.32-7.138-.72-2.739-1.078-5.686-1.078-8.84 0-3.54.524-6.694 1.576-9.462 1.051-2.767 2.435-5.104 4.15-7.014 1.715-1.909 3.706-3.361 5.976-4.357 2.269-.996 4.593-1.494 6.972-1.494 3.32 0 6.184.637 8.591 1.909 2.407 1.273 4.37 2.961 5.894 5.063 1.521 2.104 2.627 4.51 3.32 7.221.69 2.712.981 5.533.87 8.466h-35.689c.054 2.878.401 5.548 1.037 8.01zm31.913-17.099c-.72-2.351-1.784-4.411-3.195-6.184-1.411-1.77-3.169-3.166-5.271-4.191-2.104-1.022-4.538-1.535-7.305-1.535-2.324 0-4.496.443-6.516 1.328-2.02.886-3.79 2.172-5.312 3.859-1.522 1.688-2.753 3.722-3.693 6.101-.941 2.38-1.494 5.062-1.66 8.051h34.03c.001-2.6-.36-5.076-1.078-7.429zM96.228 85.641v-7.075h2.035c.403 0 .752.04 1.047.12.295.08.54.197.733.353.193.155.337.345.432.567.095.224.143.477.143.76 0 .188-.032.367-.098.54a1.621 1.621 0 0 1-.282.48c-.124.146-.274.274-.453.383s-.382.19-.612.247c.557.083.985.269 1.285.555.3.287.45.665.45 1.136 0 .3-.053.569-.16.81-.106.24-.262.443-.465.61a2.122 2.122 0 0 1-.75.382 3.515 3.515 0 0 1-1.01.133h-2.295zm.51-3.765h1.535c.327 0 .605-.042.837-.125.231-.084.421-.193.57-.33s.257-.292.328-.465c.07-.174.105-.353.105-.535 0-.477-.151-.838-.453-1.083s-.768-.367-1.397-.367h-1.525v2.905zm0 .375v2.979h1.775c.624 0 1.093-.134 1.41-.402.316-.269.475-.646.475-1.133 0-.223-.042-.424-.128-.603a1.27 1.27 0 0 0-.367-.455 1.7 1.7 0 0 0-.59-.287 2.919 2.919 0 0 0-.795-.1h-1.78zm8.105.47v2.92h-.515v-2.92l-2.615-4.155h.444c.047 0 .085.011.113.032a.383.383 0 0 1 .082.093l2.025 3.25a2.354 2.354 0 0 1 .21.441c.026-.073.057-.146.09-.218s.073-.146.12-.223l2.02-3.25a.303.303 0 0 1 .076-.09.178.178 0 0 1 .114-.035h.45l-2.614 4.155zm10.34-4.155v.436h-2.484v6.64h-.511v-6.64h-2.5v-.436h5.495zm6.684 7.075h-.515v-3.39h-4.43v3.39h-.516v-7.075h.516v3.3h4.43v-3.3h.515v7.075zm6.341-7.075v.425h-3.726v2.86h3.101v.415h-3.101v2.95h3.726v.425h-4.24v-7.075h4.24zm9.555 3.535c0 .547-.082 1.038-.245 1.475a3.172 3.172 0 0 1-.69 1.115c-.296.307-.65.542-1.064.705a3.714 3.714 0 0 1-1.375.245h-2.58v-7.075h2.58c.504 0 .962.082 1.375.245.414.163.769.398 1.064.705.297.307.527.679.69 1.115s.245.927.245 1.47zm-.529 0c0-.493-.068-.934-.205-1.32s-.33-.713-.578-.979-.547-.47-.897-.61a3.113 3.113 0 0 0-1.165-.21h-2.064v6.245h2.064c.427 0 .814-.07 1.165-.21s.649-.344.897-.61.441-.593.578-.979.205-.83.205-1.327zm7.359 3.54h-.395a.176.176 0 0 1-.115-.037.244.244 0 0 1-.07-.098l-.835-2.056h-3.476l-.83 2.056c-.013.036-.036.068-.069.095s-.073.04-.12.04h-.39l2.896-7.075h.51l2.894 7.075zm-4.734-2.57h3.17l-1.445-3.574a2.74 2.74 0 0 1-.07-.193 6.455 6.455 0 0 1-.07-.228 8.071 8.071 0 0 1-.139.426l-1.446 3.569zm6.554 2.57h-.516v-7.075h.516v7.075zm2.799-.435h3.355v.435h-3.865v-7.075h.51v6.64zm5.85-2.485v2.92h-.515v-2.92l-2.615-4.155h.444c.047 0 .085.011.113.032a.383.383 0 0 1 .082.093l2.025 3.25a2.354 2.354 0 0 1 .21.441c.026-.073.057-.146.09-.218s.073-.146.12-.223l2.02-3.25a.303.303 0 0 1 .076-.09.178.178 0 0 1 .114-.035h.45l-2.614 4.155zm5.719 2.92v-7.075h2.035c.403 0 .753.04 1.048.12s.539.197.732.353.338.345.432.567c.096.224.143.477.143.76a1.597 1.597 0 0 1-.379 1.02c-.124.146-.275.274-.453.383s-.383.19-.612.247c.557.083.985.269 1.284.555.301.287.451.665.451 1.136 0 .3-.054.569-.16.81-.107.24-.262.443-.465.61a2.122 2.122 0 0 1-.75.382 3.52 3.52 0 0 1-1.01.133h-2.296zm.511-3.765h1.535c.326 0 .605-.042.837-.125.231-.084.421-.193.569-.33s.258-.292.328-.465c.07-.174.105-.353.105-.535 0-.477-.151-.838-.453-1.083s-.768-.367-1.397-.367h-1.524v2.905zm0 .375v2.979h1.774c.624 0 1.093-.134 1.41-.402.316-.269.476-.646.476-1.133 0-.223-.043-.424-.129-.603-.084-.178-.207-.33-.367-.455s-.356-.221-.59-.287a2.914 2.914 0 0 0-.795-.1h-1.779zm6.559.19v3.2h-.51v-7.075h1.805c.816 0 1.427.157 1.83.473s.605.777.605 1.388c0 .27-.047.517-.141.74a1.756 1.756 0 0 1-.402.587 2.126 2.126 0 0 1-.633.415c-.246.108-.524.18-.834.213a.84.84 0 0 1 .215.2l2.435 3.06h-.445a.296.296 0 0 1-.138-.03.362.362 0 0 1-.112-.1l-2.265-2.87a.501.501 0 0 0-.183-.155.783.783 0 0 0-.303-.045h-.924zm0-.38h1.23c.312 0 .594-.037.842-.112s.459-.183.631-.322c.171-.141.302-.309.393-.505.09-.197.135-.419.135-.665 0-.504-.166-.877-.496-1.12-.329-.243-.81-.365-1.439-.365h-1.295v3.089zm8.125 3.215c.34 0 .645-.059.912-.178.269-.118.496-.282.683-.492s.329-.457.428-.742.147-.593.147-.923v-4.375h.51v4.375c0 .391-.062.755-.185 1.093a2.638 2.638 0 0 1-.532.885c-.232.252-.514.449-.846.593s-.704.215-1.117.215c-.414 0-.786-.071-1.117-.215a2.476 2.476 0 0 1-1.378-1.478 3.171 3.171 0 0 1-.185-1.093v-4.375h.515v4.37c0 .33.05.638.147.923s.24.532.425.742.412.375.681.495c.267.12.572.18.912.18zm5.42.365h-.516v-7.075h.516v7.075zm2.65-7.058a.25.25 0 0 1 .084.077l4.58 6.131a2.936 2.936 0 0 1-.015-.29v-5.936h.45v7.075h-.245a.214.214 0 0 1-.185-.1l-4.601-6.141c.011.101.015.195.015.285v5.955h-.445v-7.075h.25a.344.344 0 0 1 .112.019z" fill="#020202"/></svg>