<svg xmlns="http://www.w3.org/2000/svg" width="203.178" height="91.102"><path d="M12.987 80.323V23.052h1.66v11.952h.166a18.87 18.87 0 0 1 2.407-5.188 18.228 18.228 0 0 1 3.735-4.108c1.438-1.162 3.084-2.061 4.938-2.697 1.853-.636 3.859-.955 6.017-.955 2.822 0 5.354.554 7.595 1.66a16.61 16.61 0 0 1 5.727 4.648c1.577 1.991 2.78 4.344 3.61 7.055.83 2.712 1.245 5.673 1.245 8.881 0 2.988-.402 5.839-1.204 8.549-.803 2.712-1.965 5.092-3.486 7.139a16.594 16.594 0 0 1-5.686 4.855c-2.27 1.188-4.87 1.784-7.802 1.784-4.538 0-8.272-1.175-11.205-3.527-2.934-2.352-4.897-5.464-5.893-9.338h-.166v26.561h-1.658zm26.436-17.14a16.038 16.038 0 0 0 5.104-4.814c1.328-1.963 2.31-4.177 2.946-6.64.636-2.462.955-4.938.955-7.429 0-2.767-.346-5.381-1.038-7.844-.692-2.461-1.715-4.647-3.071-6.557a14.729 14.729 0 0 0-5.146-4.523c-2.075-1.106-4.496-1.66-7.263-1.66-2.711 0-5.146.554-7.304 1.66a16.168 16.168 0 0 0-5.437 4.481c-1.467 1.882-2.587 4.067-3.361 6.558-.776 2.49-1.162 5.118-1.162 7.885 0 6.696 1.577 11.827 4.731 15.396 3.154 3.569 7.331 5.354 12.533 5.354 2.934 0 5.437-.622 7.513-1.867zm18.134 2.531V23.052h1.66v10.541h.166a16.477 16.477 0 0 1 1.826-4.523c.83-1.411 1.937-2.642 3.32-3.693 1.382-1.051 3.029-1.881 4.938-2.49 1.909-.608 4.136-.885 6.682-.83v1.66c-2.934-.166-5.465.236-7.595 1.203-2.131.969-3.888 2.297-5.271 3.984-1.384 1.688-2.407 3.639-3.071 5.852a23.563 23.563 0 0 0-.996 6.806v24.153h-1.659zm21.496-50.879V6.452h1.66v8.383h-1.66zm0 50.879V23.052h1.66v42.662h-1.66zm12.449-42.662v10.541h.166a15.73 15.73 0 0 1 1.826-4.564 14.98 14.98 0 0 1 3.071-3.652 14.019 14.019 0 0 1 4.025-2.448c1.465-.581 3.03-.872 4.69-.872 3.32-.11 6.1.734 8.342 2.531 2.24 1.799 3.721 4.275 4.439 7.429h.166c.83-2.987 2.462-5.395 4.897-7.221 2.435-1.826 5.312-2.739 8.632-2.739 2.6 0 4.758.388 6.475 1.162 1.714.775 3.098 1.841 4.149 3.195 1.05 1.356 1.798 2.988 2.241 4.897.441 1.909.664 4.025.664 6.35v28.054h-1.66V37.66c0-2.103-.18-4.012-.539-5.728-.361-1.714-.996-3.181-1.91-4.398-.912-1.217-2.131-2.158-3.651-2.822-1.522-.664-3.444-.996-5.769-.996-2.048 0-3.9.402-5.561 1.203a12.66 12.66 0 0 0-4.233 3.279c-1.162 1.384-2.048 2.975-2.656 4.772-.609 1.799-.913 3.693-.913 5.686v27.058h-1.66v-27.39c0-1.992-.152-3.873-.456-5.645-.305-1.771-.872-3.319-1.702-4.647-.829-1.328-1.991-2.379-3.485-3.154-1.494-.774-3.432-1.162-5.81-1.162-2.104 0-4.013.485-5.728 1.452a13.654 13.654 0 0 0-4.357 3.901c-1.19 1.633-2.104 3.527-2.739 5.686-.637 2.158-.955 4.428-.955 6.806v24.153h-1.66V23.052h1.661zm63.122 29.673c.635 2.463 1.618 4.606 2.946 6.433 1.327 1.825 3.042 3.266 5.146 4.315 2.103 1.052 4.676 1.577 7.719 1.577 4.482 0 8.203-1.175 11.164-3.527 2.959-2.352 4.8-5.879 5.52-10.583h1.659c-.608 4.98-2.572 8.84-5.892 11.579-3.32 2.739-7.416 4.108-12.285 4.108-3.319.055-6.156-.471-8.507-1.577-2.353-1.106-4.274-2.669-5.769-4.689-1.494-2.02-2.602-4.399-3.32-7.138-.72-2.739-1.078-5.686-1.078-8.84 0-3.54.524-6.694 1.576-9.462 1.051-2.767 2.435-5.104 4.15-7.014 1.715-1.909 3.706-3.361 5.976-4.357 2.269-.996 4.593-1.494 6.972-1.494 3.32 0 6.184.637 8.591 1.909 2.407 1.273 4.37 2.961 5.894 5.063 1.521 2.104 2.627 4.51 3.32 7.221.69 2.712.981 5.533.87 8.466h-35.689c.054 2.878.401 5.548 1.037 8.01zm31.913-17.099c-.72-2.351-1.784-4.411-3.195-6.184-1.411-1.77-3.169-3.166-5.271-4.191-2.104-1.022-4.538-1.535-7.305-1.535-2.324 0-4.496.443-6.516 1.328-2.02.886-3.79 2.172-5.312 3.859-1.522 1.688-2.753 3.722-3.693 6.101-.941 2.38-1.494 5.062-1.66 8.051h34.03c.001-2.6-.36-5.076-1.078-7.429z" fill="#FCFAFB"/></svg>