<svg id="Layer_1" data-name="Layer 1" xmlns="http://www.w3.org/2000/svg" xmlns:xlink="http://www.w3.org/1999/xlink" viewBox="0 0 600 255"><defs><style>.cls-1,.cls-4{fill:none;}.cls-2{fill:#fff;}.cls-3{clip-path:url(#clip-path);}.cls-4{stroke:#fff;stroke-miterlimit:6.76;stroke-width:5.07px;}</style><clipPath id="clip-path"><rect class="cls-1" x="-113" y="-25.52" width="947.41" height="274.52"/></clipPath></defs><title>PRIME.white</title><path class="cls-2" d="M357,208.73v1.93a.38.38,0,0,1-.32.43H354a.13.13,0,0,0-.16.11v10.54a.4.4,0,0,1-.35.43h-2.36a.39.39,0,0,1-.44-.34.27.27,0,0,1,0-.09V211.25a.14.14,0,0,0-.12-.16H349a.39.39,0,0,1-.44-.31.24.24,0,0,1,0-.12v-1.93a.38.38,0,0,1,.32-.43.24.24,0,0,1,.12,0h1.54a.14.14,0,0,0,.16-.12v-.5a6.5,6.5,0,0,1,.46-2.73,2.64,2.64,0,0,1,1.52-1.36,8.23,8.23,0,0,1,3-.38h.84a.38.38,0,0,1,.43.32v1.79a.39.39,0,0,1-.32.43H356a2.22,2.22,0,0,0-1.61.46,2.45,2.45,0,0,0-.44,1.68v.25a.15.15,0,0,0,.11.16h2.59a.37.37,0,0,1,.42.33Z"/><path class="cls-2" d="M367.56,208.46a.46.46,0,0,1,.24.54l-.43,2.25q0,.23-.15.27a.59.59,0,0,1-.37,0,2.88,2.88,0,0,0-.87-.1h-.51a2.82,2.82,0,0,0-1.9.8,2.59,2.59,0,0,0-.76,1.94v7.56a.39.39,0,0,1-.32.43h-2.38a.39.39,0,0,1-.44-.34.27.27,0,0,1,0-.09v-13a.38.38,0,0,1,.32-.43h2.39a.38.38,0,0,1,.43.32v1.17c0,.07,0,.11.06.13s.07,0,.11-.08a3.55,3.55,0,0,1,3.14-1.71A3.28,3.28,0,0,1,367.56,208.46Z"/><path class="cls-2" d="M372.05,221.32a5.54,5.54,0,0,1-2.14-3,9.27,9.27,0,0,1-.46-3.09,10.39,10.39,0,0,1,.43-3.09,5.52,5.52,0,0,1,2.17-3,6.35,6.35,0,0,1,3.71-1.06,5.92,5.92,0,0,1,3.57,1.06,5.62,5.62,0,0,1,2.12,2.92,8.77,8.77,0,0,1,.49,3.09,9.8,9.8,0,0,1-.48,3.17,5.87,5.87,0,0,1-2.14,3,6,6,0,0,1-3.6,1.1A6.31,6.31,0,0,1,372.05,221.32Zm5.41-2.19a3.15,3.15,0,0,0,1-1.6,7.33,7.33,0,0,0,.3-2.28,8.66,8.66,0,0,0-.27-2.27,2.77,2.77,0,0,0-2.82-2.14,2.85,2.85,0,0,0-1.76.55,2.92,2.92,0,0,0-1,1.59,9.72,9.72,0,0,0,0,4.55,3,3,0,0,0,1,1.6,2.93,2.93,0,0,0,1.81.57,2.73,2.73,0,0,0,1.74-.59Z"/><path class="cls-2" d="M403,209.37a4.93,4.93,0,0,1,1.18,3.51v8.86a.4.4,0,0,1-.35.43h-2.37a.39.39,0,0,1-.44-.34.27.27,0,0,1,0-.09v-8.21a2.84,2.84,0,0,0-.66-2,2.24,2.24,0,0,0-1.77-.73,2.39,2.39,0,0,0-1.82.73,2.67,2.67,0,0,0-.7,2v8.24a.4.4,0,0,1-.35.43h-2.26a.39.39,0,0,1-.43-.35v-8.29a2.81,2.81,0,0,0-.68-2,2.27,2.27,0,0,0-1.78-.73,2.42,2.42,0,0,0-1.7.6,2.39,2.39,0,0,0-.77,1.62v8.7a.39.39,0,0,1-.32.43h-2.39a.38.38,0,0,1-.43-.33.17.17,0,0,1,0-.1v-13a.38.38,0,0,1,.32-.43h2.39a.38.38,0,0,1,.43.32v.84c0,.07,0,.12.07.14s.08,0,.12-.08a4.11,4.11,0,0,1,3.41-1.44,4.82,4.82,0,0,1,2.32.53,3.6,3.6,0,0,1,1.53,1.56.17.17,0,0,0,.12.08c.05,0,.08,0,.1-.11a3.85,3.85,0,0,1,1.68-1.54,4.94,4.94,0,0,1,2.33-.52A4.24,4.24,0,0,1,403,209.37Z"/><path class="cls-2" d="M419.7,210.87h-2.63c-.11,0-.16.06-.16.17v6.39a2.14,2.14,0,0,0,.45,1.52,1.92,1.92,0,0,0,1.42.46h.7a.38.38,0,0,1,.44.31v1.93a.41.41,0,0,1-.37.46h-1.37a5.64,5.64,0,0,1-3.19-.74,3.26,3.26,0,0,1-1.09-2.78V211c0-.11,0-.17-.16-.17h-1.41a.38.38,0,0,1-.43-.33.17.17,0,0,1,0-.1v-1.68a.38.38,0,0,1,.32-.43h1.52c.11,0,.16-.06.16-.17v-3a.38.38,0,0,1,.32-.43.24.24,0,0,1,.12,0h2.12a.38.38,0,0,1,.43.32v3.11c0,.11.05.17.16.17h2.63a.38.38,0,0,1,.43.32v1.79a.38.38,0,0,1-.3.44Z"/><path class="cls-2" d="M433.09,209.41a4.76,4.76,0,0,1,1.32,3.55v8.78a.4.4,0,0,1-.35.43H431.7a.38.38,0,0,1-.43-.33.17.17,0,0,1,0-.1v-8.13a2.82,2.82,0,0,0-.72-2,2.69,2.69,0,0,0-3.77,0,2.72,2.72,0,0,0-.72,2v8.16a.39.39,0,0,1-.32.43h-2.38a.39.39,0,0,1-.44-.34.27.27,0,0,1,0-.09v-18.1a.38.38,0,0,1,.32-.43.24.24,0,0,1,.12,0h2.27a.38.38,0,0,1,.43.32v6c0,.07,0,.12.06.14s.07,0,.11-.06a4,4,0,0,1,3.33-1.46A4.76,4.76,0,0,1,433.09,209.41Z"/><path class="cls-2" d="M445.61,219.32a3.33,3.33,0,0,0,1.2-1.07.4.4,0,0,1,.36-.22.36.36,0,0,1,.24.09l1.3,1a.52.52,0,0,1,.19.36.75.75,0,0,1-.08.24,5.64,5.64,0,0,1-2.14,2,6.76,6.76,0,0,1-3.12.71,6.09,6.09,0,0,1-3.59-1,5.68,5.68,0,0,1-2.09-2.83,9.63,9.63,0,0,1-.55-3.36,10.65,10.65,0,0,1,.3-2.87,5.42,5.42,0,0,1,2-3.06,6,6,0,0,1,3.69-1.14q5.06,0,5.93,5.55c.1.73.16,1.47.19,2.22a.39.39,0,0,1-.34.44h-8.49a.13.13,0,0,0-.16.11v0a3.46,3.46,0,0,0,.16,1.19,2.68,2.68,0,0,0,1.14,1.52,3.79,3.79,0,0,0,2.08.54A4.1,4.1,0,0,0,445.61,219.32Zm-4-8a2.42,2.42,0,0,0-.91,1.4,3.91,3.91,0,0,0-.22,1.13c0,.11,0,.17.14.17h5.44a.16.16,0,0,0,.17-.13v0a8.35,8.35,0,0,0-.17-1,2.71,2.71,0,0,0-1-1.51,2.91,2.91,0,0,0-1.8-.55,2.65,2.65,0,0,0-1.63.53Z"/><path class="cls-2" d="M466.59,203.21h2.27a.38.38,0,0,1,.44.31v18.22a.4.4,0,0,1-.35.43h-2.36a.38.38,0,0,1-.43-.33.17.17,0,0,1,0-.1V221c0-.07,0-.12-.07-.13s-.09,0-.13.08a3.79,3.79,0,0,1-3.08,1.41,5.3,5.3,0,0,1-3.25-1,5.48,5.48,0,0,1-1.95-2.78,10.81,10.81,0,0,1-.49-3.38,10.31,10.31,0,0,1,.46-3.31,5.62,5.62,0,0,1,1.92-2.79,5.29,5.29,0,0,1,3.31-1,3.94,3.94,0,0,1,3.08,1.33.17.17,0,0,0,.13.07.18.18,0,0,0,.07-.13v-5.74a.38.38,0,0,1,.3-.45A.28.28,0,0,1,466.59,203.21Zm-.49,12a6.19,6.19,0,0,0-.68-3.22,2.25,2.25,0,0,0-2-1.19,2.44,2.44,0,0,0-2.17,1.14,6,6,0,0,0-.78,3.3,6.24,6.24,0,0,0,.65,3.09,2.42,2.42,0,0,0,2.28,1.3,2.37,2.37,0,0,0,2.11-1.27,6.39,6.39,0,0,0,.59-3.13Z"/><path class="cls-2" d="M481,208.71a4.62,4.62,0,0,1,2,1.63,4.18,4.18,0,0,1,.71,2.38v9a.4.4,0,0,1-.35.43H481a.38.38,0,0,1-.43-.33.17.17,0,0,1,0-.1V221q0-.12-.06-.12a.15.15,0,0,0-.13,0,5.42,5.42,0,0,1-3.91,1.41,5.17,5.17,0,0,1-3.29-1,3.7,3.7,0,0,1-1.28-3.06,4,4,0,0,1,1.47-3.3,6.55,6.55,0,0,1,4.16-1.17h2.87a.16.16,0,0,0,.17-.13V213a2.13,2.13,0,0,0-.64-1.64,2.66,2.66,0,0,0-1.88-.58,3.09,3.09,0,0,0-1.58.34,1.67,1.67,0,0,0-.84.93.43.43,0,0,1-.48.35h0l-2.44-.29a.64.64,0,0,1-.33-.13.23.23,0,0,1-.08-.23,3.8,3.8,0,0,1,1.8-2.65,6.81,6.81,0,0,1,3.86-1A7.09,7.09,0,0,1,481,208.71Zm-1.36,10.48a2.19,2.19,0,0,0,.95-1.79v-1.24a.15.15,0,0,0-.13-.17,0,0,0,0,0,0,0h-2.25a4.11,4.11,0,0,0-2.27.54,1.74,1.74,0,0,0-.84,1.55,1.58,1.58,0,0,0,.65,1.34,2.74,2.74,0,0,0,1.65.47A3.8,3.8,0,0,0,479.62,219.19Z"/><path class="cls-2" d="M487.15,206a1.91,1.91,0,0,1-.57-1.42,1.82,1.82,0,0,1,.57-1.41,2.23,2.23,0,0,1,2.91,0,1.89,1.89,0,0,1,.55,1.41,1.93,1.93,0,0,1-.55,1.42,2,2,0,0,1-1.45.55A2,2,0,0,1,487.15,206Zm-.11,15.7v-13a.37.37,0,0,1,.33-.42h2.37a.38.38,0,0,1,.43.32v13.11a.39.39,0,0,1-.32.43h-2.39a.38.38,0,0,1-.42-.34.17.17,0,0,1,0-.1Z"/><path class="cls-2" d="M493.76,221.74v-18.1a.38.38,0,0,1,.32-.43.21.21,0,0,1,.11,0h2.27a.38.38,0,0,1,.44.31v18.22a.4.4,0,0,1-.35.43h-2.36a.38.38,0,0,1-.43-.33A.17.17,0,0,1,493.76,221.74Z"/><path class="cls-2" d="M499.85,227.13v-1.74c0-.29.06-.43.19-.43h.16a6.42,6.42,0,0,0,1.74-.2,2,2,0,0,0,1-.78,6.21,6.21,0,0,0,.72-1.7.22.22,0,0,0,0-.22l-4.42-13.25a.54.54,0,0,1,0-.18c0-.2.12-.3.38-.3h2.43a.44.44,0,0,1,.49.35l2.66,9a.11.11,0,0,0,.12.1c.05,0,.08,0,.09-.1l2.58-9a.44.44,0,0,1,.47-.36h2.44a.4.4,0,0,1,.34.12.38.38,0,0,1,0,.36l-4.74,14.12a13.31,13.31,0,0,1-1.32,2.87,3.67,3.67,0,0,1-1.78,1.35,9.79,9.79,0,0,1-3.18.41H500Q499.85,227.57,499.85,227.13Z"/><path class="cls-2" d="M531.11,215.21a11.11,11.11,0,0,1-.49,3.38,5.54,5.54,0,0,1-2,2.78,5.32,5.32,0,0,1-3.25,1,3.83,3.83,0,0,1-3.09-1.41.09.09,0,0,0-.12-.08c-.05,0-.07.06-.07.13v.71a.39.39,0,0,1-.32.43h-2.36a.39.39,0,0,1-.44-.34.27.27,0,0,1,0-.09v-18.1a.38.38,0,0,1,.32-.43h2.39a.38.38,0,0,1,.43.32v5.85c0,.08,0,.12.07.13a.14.14,0,0,0,.12-.07,4,4,0,0,1,3.09-1.33,5.31,5.31,0,0,1,3.31,1,5.62,5.62,0,0,1,1.92,2.79A10.7,10.7,0,0,1,531.11,215.21Zm-3.25,0a5.86,5.86,0,0,0-.79-3.3,2.42,2.42,0,0,0-2.16-1.14,2.23,2.23,0,0,0-2,1.19,6.09,6.09,0,0,0-.68,3.22,6.36,6.36,0,0,0,.62,3.15,2.36,2.36,0,0,0,2.11,1.27,2.43,2.43,0,0,0,2.28-1.3A6.35,6.35,0,0,0,527.86,215.26Z"/><path class="cls-2" d="M541.78,208.46a.45.45,0,0,1,.25.54l-.44,2.25q0,.23-.15.27a.55.55,0,0,1-.36,0,2.88,2.88,0,0,0-.87-.1,2.18,2.18,0,0,0-.51,0,2.82,2.82,0,0,0-1.9.8,2.55,2.55,0,0,0-.76,1.94v7.56a.39.39,0,0,1-.32.43h-2.39a.38.38,0,0,1-.43-.33.17.17,0,0,1,0-.1v-13a.38.38,0,0,1,.32-.43h2.39a.38.38,0,0,1,.43.32v1.17c0,.07,0,.11.06.13s.07,0,.11-.08a3.53,3.53,0,0,1,3.14-1.71A3.27,3.27,0,0,1,541.78,208.46Z"/><path class="cls-2" d="M552.7,208.32H555a.38.38,0,0,1,.43.32v13.11a.39.39,0,0,1-.32.43H552.7a.38.38,0,0,1-.43-.33.17.17,0,0,1,0-.1V221c0-.07,0-.12-.07-.13s-.09,0-.12.08a4,4,0,0,1-3.31,1.38,5.2,5.2,0,0,1-3.45-1.19,4.24,4.24,0,0,1-1.4-3.39v-9a.38.38,0,0,1,.32-.43.24.24,0,0,1,.12,0h2.27a.38.38,0,0,1,.44.31v8.25a3,3,0,0,0,.66,2,2.38,2.38,0,0,0,1.85.76,2.66,2.66,0,0,0,2-.76,2.9,2.9,0,0,0,.73-2v-8.13a.37.37,0,0,1,.28-.46A.2.2,0,0,1,552.7,208.32Z"/><path class="cls-2" d="M559.06,206a1.9,1.9,0,0,1-.56-1.42,1.83,1.83,0,0,1,.56-1.41,2.05,2.05,0,0,1,1.47-.54,2,2,0,0,1,1.45.54,1.89,1.89,0,0,1,.55,1.41A1.93,1.93,0,0,1,562,206a2,2,0,0,1-1.45.55A2,2,0,0,1,559.06,206Zm-.1,15.7v-13a.38.38,0,0,1,.32-.43h2.38a.38.38,0,0,1,.44.31v13.12a.4.4,0,0,1-.35.43h-2.36a.38.38,0,0,1-.43-.33A.17.17,0,0,1,559,221.74Z"/><path class="cls-2" d="M575.82,209.41a4.79,4.79,0,0,1,1.31,3.55v8.78a.39.39,0,0,1-.32.43h-2.35a.38.38,0,0,1-.43-.33.17.17,0,0,1,0-.1v-8.13a2.82,2.82,0,0,0-.72-2,2.69,2.69,0,0,0-3.76,0,2.72,2.72,0,0,0-.72,2v8.16a.4.4,0,0,1-.35.43h-2.36a.38.38,0,0,1-.43-.33.17.17,0,0,1,0-.1v-13a.38.38,0,0,1,.32-.43h2.39a.38.38,0,0,1,.43.32v.84a.17.17,0,0,0,0,.14.13.13,0,0,0,.11-.06,4,4,0,0,1,3.33-1.46A4.77,4.77,0,0,1,575.82,209.41Z"/><g class="cls-3"><path class="cls-4" d="M84.43,105.55H64.54c-.81,0-1.22-.34-1.22-1v-.4l3.86-31.25a1.26,1.26,0,0,1,.51-1,1.72,1.72,0,0,1,1.11-.4H88.69q7.31,0,11.67,4a13.44,13.44,0,0,1,4.36,10.45q0,8.72-5.68,14.2T84.43,105.55Zm13-62.91H41.81a3.93,3.93,0,0,0-2.74,1,4.11,4.11,0,0,0-1.31,2.64L21.12,181a3.12,3.12,0,0,0,.71,2.63,3.21,3.21,0,0,0,2.53,1H49.93a3.57,3.57,0,0,0,2.64-1A4.4,4.4,0,0,0,53.79,181l5.88-47.28c.27-.95.81-1.42,1.62-1.42H84.83a57,57,0,0,0,25.27-5.48,47.32,47.32,0,0,0,18.36-15.63,50.84,50.84,0,0,0,8.73-23.33q.41-4.87.4-6.9,0-17.65-10.85-28T97.41,42.64Z"/><path class="cls-4" d="M193,71.46H214.5q6.69,0,10.65,3.55a12.3,12.3,0,0,1,4,9.64c0,5.27-1.73,9.54-5.18,12.78a18.32,18.32,0,0,1-13.08,4.87H189.34c-.82,0-1.22-.33-1.22-1v-.41l3.45-28a1.26,1.26,0,0,1,.51-1A1.56,1.56,0,0,1,193,71.46Zm27,113.23h27a3.68,3.68,0,0,0,2.53-.81,2.84,2.84,0,0,0,.92-2.23,2.76,2.76,0,0,0-.21-1.22l-18.67-54a1.8,1.8,0,0,1,1-2A43.69,43.69,0,0,0,252.24,110a46.43,46.43,0,0,0,9.34-23.33c.27-3,.4-5.14.4-6.5q0-17.24-10.35-27.39t-28.2-10.15H166.2a3.93,3.93,0,0,0-2.74,1,4.19,4.19,0,0,0-1.32,2.64L145.5,181a3.16,3.16,0,0,0,.72,2.63,3.21,3.21,0,0,0,2.53,1h25.57a3.57,3.57,0,0,0,2.64-1,4.4,4.4,0,0,0,1.22-2.63l6.49-51.55a1.26,1.26,0,0,1,1.42-1.42h12.17c1,0,1.43.34,1.43,1l16.43,52.76A3.63,3.63,0,0,0,220,184.69Z"/><path class="cls-4" d="M275.78,184.69h25.57a3.57,3.57,0,0,0,2.64-1A4.34,4.34,0,0,0,305.2,181L321.84,46.3a3.38,3.38,0,0,0-.61-2.64,2.91,2.91,0,0,0-2.43-1H293.23a3.91,3.91,0,0,0-2.74,1,4.19,4.19,0,0,0-1.32,2.64L272.53,181a3.16,3.16,0,0,0,.71,2.63A3.24,3.24,0,0,0,275.78,184.69Z"/><path class="cls-4" d="M334.22,184.69h25.57a3.53,3.53,0,0,0,2.63-1,4.29,4.29,0,0,0,1.22-2.63l9.74-79.35c.14-.67.37-1.08.71-1.21s.64.13.92.81l12.78,26.78q.81,2.44,3.86,2.44h12a5.08,5.08,0,0,0,4.46-2.44l19.08-26.78q.6-.81,1.11-.81t.51.81v.4L419,181q-.41,3.65,3,3.65h25.57a3.91,3.91,0,0,0,2.74-1,4.14,4.14,0,0,0,1.32-2.63L468.15,46.3a3.42,3.42,0,0,0-.61-2.64,2.94,2.94,0,0,0-2.44-1H439.74a5.12,5.12,0,0,0-4.47,2.44L403.62,88.71c-.81.81-1.49.81-2,0l-20.7-43.63A3.81,3.81,0,0,0,377,42.64H351.67a3.91,3.91,0,0,0-2.74,1,4.14,4.14,0,0,0-1.32,2.64L331,181a3.16,3.16,0,0,0,.71,2.63A3.23,3.23,0,0,0,334.22,184.69Z"/><path class="cls-4" d="M588.48,67.81l2.64-21.51a3.42,3.42,0,0,0-.61-2.64,2.94,2.94,0,0,0-2.44-1h-90.7a3.89,3.89,0,0,0-2.74,1,4.1,4.1,0,0,0-1.32,2.64L476.67,181a3.16,3.16,0,0,0,.71,2.64,3.26,3.26,0,0,0,2.54,1h90.7a3.6,3.6,0,0,0,2.64-1,4.4,4.4,0,0,0,1.22-2.64l2.64-21.51a3.42,3.42,0,0,0-.61-2.64,3,3,0,0,0-2.44-1H513.8c-.81,0-1.21-.47-1.21-1.42l3.24-26a1.65,1.65,0,0,1,1.63-1.42H555.4c2.3,0,3.66-1.22,4.06-3.65l2.64-21.31a3.19,3.19,0,0,0-.71-2.64,3.27,3.27,0,0,0-2.54-1H520.91c-.82,0-1.22-.47-1.22-1.42l3-24.15a1.26,1.26,0,0,1,.51-1,1.58,1.58,0,0,1,.91-.4h60.27a3.91,3.91,0,0,0,2.74-1A4.14,4.14,0,0,0,588.48,67.81Z"/></g></svg>
