<?xml version="1.0" encoding="utf-8"?>
<!-- Generator: Adobe Illustrator 19.0.0, SVG Export Plug-In . SVG Version: 6.00 Build 0)  -->
<svg version="1.1" id="Layer_1" xmlns="http://www.w3.org/2000/svg" xmlns:xlink="http://www.w3.org/1999/xlink" x="0px" y="0px"
	 viewBox="-857 495.9 203.2 91.1" style="enable-background:new -857 495.9 203.2 91.1;" xml:space="preserve">
<style type="text/css">
	.st0{enable-background:new    ;}
	.st1{fill:#FCFAFB;}
	.st2{fill:#F9F9FA;}
</style>
<g class="st0">
	<path class="st1" d="M-844,576.2V519h1.7v12h0.2c0.6-1.9,1.4-3.6,2.4-5.2c1.1-1.6,2.3-2.9,3.7-4.1c1.4-1.2,3.1-2.1,4.9-2.7
		c1.9-0.6,3.9-1,6-1c2.8,0,5.4,0.6,7.6,1.7c2.2,1.1,4.2,2.7,5.7,4.6c1.6,2,2.8,4.3,3.6,7.1c0.8,2.7,1.2,5.7,1.2,8.9
		c0,3-0.4,5.8-1.2,8.5c-0.8,2.7-2,5.1-3.5,7.1c-1.5,2-3.4,3.7-5.7,4.9c-2.3,1.2-4.9,1.8-7.8,1.8c-4.5,0-8.3-1.2-11.2-3.5
		c-2.9-2.4-4.9-5.5-5.9-9.3h-0.2v26.6H-844z M-817.6,559.1c2.1-1.2,3.8-2.8,5.1-4.8c1.3-2,2.3-4.2,2.9-6.6c0.6-2.5,1-4.9,1-7.4
		c0-2.8-0.3-5.4-1-7.8c-0.7-2.5-1.7-4.6-3.1-6.6c-1.4-1.9-3.1-3.4-5.1-4.5c-2.1-1.1-4.5-1.7-7.3-1.7c-2.7,0-5.1,0.6-7.3,1.7
		c-2.2,1.1-4,2.6-5.4,4.5c-1.5,1.9-2.6,4.1-3.4,6.6c-0.8,2.5-1.2,5.1-1.2,7.9c0,6.7,1.6,11.8,4.7,15.4c3.2,3.6,7.3,5.4,12.5,5.4
		C-822.2,560.9-819.7,560.3-817.6,559.1z"/>
	<path class="st1" d="M-799.4,561.6V519h1.7v10.5h0.2c0.4-1.6,1-3.1,1.8-4.5c0.8-1.4,1.9-2.6,3.3-3.7c1.4-1.1,3-1.9,4.9-2.5
		c1.9-0.6,4.1-0.9,6.7-0.8v1.7c-2.9-0.2-5.5,0.2-7.6,1.2c-2.1,1-3.9,2.3-5.3,4c-1.4,1.7-2.4,3.6-3.1,5.9c-0.7,2.2-1,4.5-1,6.8v24.2
		L-799.4,561.6L-799.4,561.6z"/>
	<path class="st1" d="M-777.9,510.7v-8.4h1.7v8.4C-776.3,510.7-777.9,510.7-777.9,510.7z M-777.9,561.6V519h1.7v42.7H-777.9z"/>
	<path class="st1" d="M-765.5,519v10.5h0.2c0.4-1.7,1-3.2,1.8-4.6c0.8-1.4,1.9-2.6,3.1-3.7c1.2-1.1,2.6-1.9,4-2.4
		c1.5-0.6,3-0.9,4.7-0.9c3.3-0.1,6.1,0.7,8.3,2.5c2.2,1.8,3.7,4.3,4.4,7.4h0.2c0.8-3,2.5-5.4,4.9-7.2s5.3-2.7,8.6-2.7
		c2.6,0,4.8,0.4,6.5,1.2c1.7,0.8,3.1,1.8,4.1,3.2c1.1,1.4,1.8,3,2.2,4.9c0.4,1.9,0.7,4,0.7,6.4v28.1h-1.7v-28.1c0-2.1-0.2-4-0.5-5.7
		c-0.4-1.7-1-3.2-1.9-4.4c-0.9-1.2-2.1-2.2-3.7-2.8c-1.5-0.7-3.4-1-5.8-1c-2,0-3.9,0.4-5.6,1.2c-1.7,0.8-3.1,1.9-4.2,3.3
		c-1.2,1.4-2,3-2.7,4.8c-0.6,1.8-0.9,3.7-0.9,5.7v27.1h-1.7v-27.4c0-2-0.2-3.9-0.5-5.6c-0.3-1.8-0.9-3.3-1.7-4.6
		c-0.8-1.3-2-2.4-3.5-3.2c-1.5-0.8-3.4-1.2-5.8-1.2c-2.1,0-4,0.5-5.7,1.5c-1.7,1-3.2,2.3-4.4,3.9c-1.2,1.6-2.1,3.5-2.7,5.7
		c-0.6,2.2-1,4.4-1,6.8v24.2h-1.7V519H-765.5z"/>
	<path class="st1" d="M-702.4,548.6c0.6,2.5,1.6,4.6,2.9,6.4c1.3,1.8,3,3.3,5.1,4.3c2.1,1.1,4.7,1.6,7.7,1.6c4.5,0,8.2-1.2,11.2-3.5
		c3-2.4,4.8-5.9,5.5-10.6h1.7c-0.6,5-2.6,8.8-5.9,11.6s-7.4,4.1-12.3,4.1c-3.3,0.1-6.2-0.5-8.5-1.6c-2.4-1.1-4.3-2.7-5.8-4.7
		c-1.5-2-2.6-4.4-3.3-7.1c-0.7-2.7-1.1-5.7-1.1-8.8c0-3.5,0.5-6.7,1.6-9.5c1.1-2.8,2.4-5.1,4.1-7c1.7-1.9,3.7-3.4,6-4.4
		c2.3-1,4.6-1.5,7-1.5c3.3,0,6.2,0.6,8.6,1.9c2.4,1.3,4.4,3,5.9,5.1c1.5,2.1,2.6,4.5,3.3,7.2c0.7,2.7,1,5.5,0.9,8.5h-35.7
		C-703.4,543.5-703,546.2-702.4,548.6z M-670.5,531.5c-0.7-2.4-1.8-4.4-3.2-6.2c-1.4-1.8-3.2-3.2-5.3-4.2c-2.1-1-4.5-1.5-7.3-1.5
		c-2.3,0-4.5,0.4-6.5,1.3c-2,0.9-3.8,2.2-5.3,3.9c-1.5,1.7-2.8,3.7-3.7,6.1c-0.9,2.4-1.5,5.1-1.7,8.1h34
		C-669.4,536.4-669.7,533.9-670.5,531.5z"/>
</g>
<g class="st0">
	<path class="st2" d="M-758.7,574.5c0.4,0,0.8,0,1,0.1c0.3,0.1,0.5,0.2,0.7,0.4s0.3,0.3,0.4,0.6c0.1,0.2,0.1,0.5,0.1,0.8
		c0,0.2,0,0.4-0.1,0.5c-0.1,0.2-0.2,0.3-0.3,0.5s-0.3,0.3-0.5,0.4c-0.2,0.1-0.4,0.2-0.6,0.2c0.6,0.1,1,0.3,1.3,0.6
		c0.3,0.3,0.4,0.7,0.4,1.1c0,0.3-0.1,0.6-0.2,0.8s-0.3,0.4-0.5,0.6c-0.2,0.2-0.5,0.3-0.8,0.4c-0.3,0.1-0.6,0.1-1,0.1h-2.3v-7.1
		H-758.7z M-760.3,574.9v2.9h1.5c0.3,0,0.6,0,0.8-0.1c0.2-0.1,0.4-0.2,0.6-0.3s0.3-0.3,0.3-0.5c0.1-0.2,0.1-0.4,0.1-0.5
		c0-0.5-0.2-0.8-0.5-1.1s-0.8-0.4-1.4-0.4H-760.3z M-758.5,581.1c0.6,0,1.1-0.1,1.4-0.4c0.3-0.3,0.5-0.6,0.5-1.1
		c0-0.2,0-0.4-0.1-0.6c-0.1-0.2-0.2-0.3-0.4-0.5c-0.2-0.1-0.4-0.2-0.6-0.3c-0.2-0.1-0.5-0.1-0.8-0.1h-1.8v3H-758.5z"/>
	<path class="st2" d="M-752.5,578.6v2.9h-0.5v-2.9l-2.6-4.2h0.5c0,0,0.1,0,0.1,0c0,0,0.1,0.1,0.1,0.1l2,3.2c0,0.1,0.1,0.2,0.1,0.2
		s0.1,0.1,0.1,0.2c0-0.1,0.1-0.1,0.1-0.2c0-0.1,0.1-0.1,0.1-0.2l2-3.2c0,0,0-0.1,0.1-0.1s0.1,0,0.1,0h0.5L-752.5,578.6z"/>
	<path class="st2" d="M-742.1,574.9h-2.5v6.6h-0.5v-6.6h-2.5v-0.4h5.5V574.9z"/>
	<path class="st2" d="M-735.4,574.5v7.1h-0.5v-3.4h-4.4v3.4h-0.5v-7.1h0.5v3.3h4.4v-3.3H-735.4z"/>
	<path class="st2" d="M-729.1,581.1l0,0.4h-4.2v-7.1h4.2v0.4h-3.7v2.9h3.1v0.4h-3.1v3H-729.1z"/>
</g>
<g class="st0">
	<path class="st2" d="M-719.2,578c0,0.5-0.1,1-0.2,1.5c-0.2,0.4-0.4,0.8-0.7,1.1s-0.7,0.5-1.1,0.7s-0.9,0.2-1.4,0.2h-2.6v-7.1h2.6
		c0.5,0,1,0.1,1.4,0.2s0.8,0.4,1.1,0.7s0.5,0.7,0.7,1.1C-719.3,577-719.2,577.5-719.2,578z M-719.8,578c0-0.5-0.1-0.9-0.2-1.3
		s-0.3-0.7-0.6-1s-0.5-0.5-0.9-0.6c-0.3-0.1-0.7-0.2-1.2-0.2h-2.1v6.2h2.1c0.4,0,0.8-0.1,1.2-0.2c0.4-0.1,0.7-0.3,0.9-0.6
		s0.4-0.6,0.6-1S-719.8,578.5-719.8,578z"/>
</g>
<g class="st0">
	<path class="st2" d="M-712.4,581.5h-0.4c0,0-0.1,0-0.1,0c0,0-0.1-0.1-0.1-0.1l-0.8-2.1h-3.5l-0.8,2.1c0,0,0,0.1-0.1,0.1
		c0,0-0.1,0-0.1,0h-0.4l2.9-7.1h0.5L-712.4,581.5z M-713.9,579l-1.4-3.6c0-0.1-0.1-0.3-0.1-0.4c0,0.1,0,0.2-0.1,0.2
		c0,0.1,0,0.1-0.1,0.2l-1.4,3.6H-713.9z"/>
	<path class="st2" d="M-710.7,581.5h-0.5v-7.1h0.5V581.5z"/>
</g>
<g class="st0">
	<path class="st2" d="M-704.4,581.1v0.4h-3.9v-7.1h0.5v6.6H-704.4z"/>
</g>
<g class="st0">
	<path class="st2" d="M-702,578.6v2.9h-0.5v-2.9l-2.6-4.2h0.4c0,0,0.1,0,0.1,0c0,0,0.1,0.1,0.1,0.1l2,3.2c0,0.1,0.1,0.2,0.1,0.2
		c0,0.1,0.1,0.1,0.1,0.2c0-0.1,0.1-0.1,0.1-0.2s0.1-0.1,0.1-0.2l2-3.2c0,0,0-0.1,0.1-0.1c0,0,0.1,0,0.1,0h0.5L-702,578.6z"/>
	<path class="st2" d="M-693.8,574.5c0.4,0,0.8,0,1,0.1c0.3,0.1,0.5,0.2,0.7,0.4s0.3,0.3,0.4,0.6c0.1,0.2,0.1,0.5,0.1,0.8
		c0,0.2,0,0.4-0.1,0.5c-0.1,0.2-0.2,0.3-0.3,0.5s-0.3,0.3-0.5,0.4c-0.2,0.1-0.4,0.2-0.6,0.2c0.6,0.1,1,0.3,1.3,0.6
		c0.3,0.3,0.4,0.7,0.4,1.1c0,0.3-0.1,0.6-0.2,0.8s-0.3,0.4-0.5,0.6c-0.2,0.2-0.5,0.3-0.8,0.4c-0.3,0.1-0.6,0.1-1,0.1h-2.3v-7.1
		H-693.8z M-695.3,574.9v2.9h1.5c0.3,0,0.6,0,0.8-0.1c0.2-0.1,0.4-0.2,0.6-0.3s0.3-0.3,0.3-0.5c0.1-0.2,0.1-0.4,0.1-0.5
		c0-0.5-0.2-0.8-0.5-1.1s-0.8-0.4-1.4-0.4H-695.3z M-693.6,581.1c0.6,0,1.1-0.1,1.4-0.4c0.3-0.3,0.5-0.6,0.5-1.1
		c0-0.2,0-0.4-0.1-0.6c-0.1-0.2-0.2-0.3-0.4-0.5c-0.2-0.1-0.4-0.2-0.6-0.3c-0.2-0.1-0.5-0.1-0.8-0.1h-1.8v3H-693.6z"/>
</g>
<g class="st0">
	<path class="st2" d="M-684.9,581.5h-0.4c-0.1,0-0.1,0-0.1,0s-0.1-0.1-0.1-0.1l-2.3-2.9c0,0-0.1-0.1-0.1-0.1c0,0-0.1,0-0.1-0.1
		c0,0-0.1,0-0.1,0c0,0-0.1,0-0.2,0h-0.9v3.2h-0.5v-7.1h1.8c0.8,0,1.4,0.2,1.8,0.5s0.6,0.8,0.6,1.4c0,0.3,0,0.5-0.1,0.7
		c-0.1,0.2-0.2,0.4-0.4,0.6c-0.2,0.2-0.4,0.3-0.6,0.4c-0.2,0.1-0.5,0.2-0.8,0.2c0.1,0,0.2,0.1,0.2,0.2L-684.9,581.5z M-688.1,578
		c0.3,0,0.6,0,0.8-0.1c0.2-0.1,0.5-0.2,0.6-0.3c0.2-0.1,0.3-0.3,0.4-0.5c0.1-0.2,0.1-0.4,0.1-0.7c0-0.5-0.2-0.9-0.5-1.1
		s-0.8-0.4-1.4-0.4h-1.3v3.1H-688.1z"/>
</g>
<g class="st0">
	<path class="st2" d="M-681.1,581.2c0.3,0,0.6-0.1,0.9-0.2c0.3-0.1,0.5-0.3,0.7-0.5s0.3-0.5,0.4-0.7c0.1-0.3,0.1-0.6,0.1-0.9v-4.4
		h0.5v4.4c0,0.4-0.1,0.8-0.2,1.1c-0.1,0.3-0.3,0.6-0.5,0.9s-0.5,0.4-0.8,0.6c-0.3,0.1-0.7,0.2-1.1,0.2c-0.4,0-0.8-0.1-1.1-0.2
		s-0.6-0.3-0.8-0.6s-0.4-0.5-0.5-0.9c-0.1-0.3-0.2-0.7-0.2-1.1v-4.4h0.5v4.4c0,0.3,0,0.6,0.1,0.9c0.1,0.3,0.2,0.5,0.4,0.7
		c0.2,0.2,0.4,0.4,0.7,0.5S-681.4,581.2-681.1,581.2z"/>
	<path class="st2" d="M-675.9,581.5h-0.5v-7.1h0.5V581.5z"/>
	<path class="st2" d="M-668.3,574.5v7.1h-0.2c0,0-0.1,0-0.1,0c0,0-0.1,0-0.1-0.1l-4.6-6.1c0,0.1,0,0.2,0,0.3v6h-0.5v-7.1h0.3
		c0,0,0.1,0,0.1,0c0,0,0.1,0,0.1,0.1l4.6,6.1c0-0.1,0-0.2,0-0.3v-5.9H-668.3z"/>
</g>
</svg>
