<svg id="Layer_1" data-name="Layer 1" xmlns="http://www.w3.org/2000/svg" xmlns:xlink="http://www.w3.org/1999/xlink" viewBox="0 0 600 255"><defs><style>.cls-1,.cls-4{fill:none;}.cls-2{fill:#000000;}.cls-3{clip-path:url(#clip-path);}.cls-4{stroke:#000000;stroke-miterlimit:6.76;stroke-width:5.07px;}</style><clipPath id="clip-path"><rect class="cls-1" x="-113" y="-25.52" width="947.41" height="274.52"/></clipPath></defs><title>PRIME.white</title><g class="cls-3"><path class="cls-4" d="M84.43,105.55H64.54c-.81,0-1.22-.34-1.22-1v-.4l3.86-31.25a1.26,1.26,0,0,1,.51-1,1.72,1.72,0,0,1,1.11-.4H88.69q7.31,0,11.67,4a13.44,13.44,0,0,1,4.36,10.45q0,8.72-5.68,14.2T84.43,105.55Zm13-62.91H41.81a3.93,3.93,0,0,0-2.74,1,4.11,4.11,0,0,0-1.31,2.64L21.12,181a3.12,3.12,0,0,0,.71,2.63,3.21,3.21,0,0,0,2.53,1H49.93a3.57,3.57,0,0,0,2.64-1A4.4,4.4,0,0,0,53.79,181l5.88-47.28c.27-.95.81-1.42,1.62-1.42H84.83a57,57,0,0,0,25.27-5.48,47.32,47.32,0,0,0,18.36-15.63,50.84,50.84,0,0,0,8.73-23.33q.41-4.87.4-6.9,0-17.65-10.85-28T97.41,42.64Z"/><path class="cls-4" d="M193,71.46H214.5q6.69,0,10.65,3.55a12.3,12.3,0,0,1,4,9.64c0,5.27-1.73,9.54-5.18,12.78a18.32,18.32,0,0,1-13.08,4.87H189.34c-.82,0-1.22-.33-1.22-1v-.41l3.45-28a1.26,1.26,0,0,1,.51-1A1.56,1.56,0,0,1,193,71.46Zm27,113.23h27a3.68,3.68,0,0,0,2.53-.81,2.84,2.84,0,0,0,.92-2.23,2.76,2.76,0,0,0-.21-1.22l-18.67-54a1.8,1.8,0,0,1,1-2A43.69,43.69,0,0,0,252.24,110a46.43,46.43,0,0,0,9.34-23.33c.27-3,.4-5.14.4-6.5q0-17.24-10.35-27.39t-28.2-10.15H166.2a3.93,3.93,0,0,0-2.74,1,4.19,4.19,0,0,0-1.32,2.64L145.5,181a3.16,3.16,0,0,0,.72,2.63,3.21,3.21,0,0,0,2.53,1h25.57a3.57,3.57,0,0,0,2.64-1,4.4,4.4,0,0,0,1.22-2.63l6.49-51.55a1.26,1.26,0,0,1,1.42-1.42h12.17c1,0,1.43.34,1.43,1l16.43,52.76A3.63,3.63,0,0,0,220,184.69Z"/><path class="cls-4" d="M275.78,184.69h25.57a3.57,3.57,0,0,0,2.64-1A4.34,4.34,0,0,0,305.2,181L321.84,46.3a3.38,3.38,0,0,0-.61-2.64,2.91,2.91,0,0,0-2.43-1H293.23a3.91,3.91,0,0,0-2.74,1,4.19,4.19,0,0,0-1.32,2.64L272.53,181a3.16,3.16,0,0,0,.71,2.63A3.24,3.24,0,0,0,275.78,184.69Z"/><path class="cls-4" d="M334.22,184.69h25.57a3.53,3.53,0,0,0,2.63-1,4.29,4.29,0,0,0,1.22-2.63l9.74-79.35c.14-.67.37-1.08.71-1.21s.64.13.92.81l12.78,26.78q.81,2.44,3.86,2.44h12a5.08,5.08,0,0,0,4.46-2.44l19.08-26.78q.6-.81,1.11-.81t.51.81v.4L419,181q-.41,3.65,3,3.65h25.57a3.91,3.91,0,0,0,2.74-1,4.14,4.14,0,0,0,1.32-2.63L468.15,46.3a3.42,3.42,0,0,0-.61-2.64,2.94,2.94,0,0,0-2.44-1H439.74a5.12,5.12,0,0,0-4.47,2.44L403.62,88.71c-.81.81-1.49.81-2,0l-20.7-43.63A3.81,3.81,0,0,0,377,42.64H351.67a3.91,3.91,0,0,0-2.74,1,4.14,4.14,0,0,0-1.32,2.64L331,181a3.16,3.16,0,0,0,.71,2.63A3.23,3.23,0,0,0,334.22,184.69Z"/><path class="cls-4" d="M588.48,67.81l2.64-21.51a3.42,3.42,0,0,0-.61-2.64,2.94,2.94,0,0,0-2.44-1h-90.7a3.89,3.89,0,0,0-2.74,1,4.1,4.1,0,0,0-1.32,2.64L476.67,181a3.16,3.16,0,0,0,.71,2.64,3.26,3.26,0,0,0,2.54,1h90.7a3.6,3.6,0,0,0,2.64-1,4.4,4.4,0,0,0,1.22-2.64l2.64-21.51a3.42,3.42,0,0,0-.61-2.64,3,3,0,0,0-2.44-1H513.8c-.81,0-1.21-.47-1.21-1.42l3.24-26a1.65,1.65,0,0,1,1.63-1.42H555.4c2.3,0,3.66-1.22,4.06-3.65l2.64-21.31a3.19,3.19,0,0,0-.71-2.64,3.27,3.27,0,0,0-2.54-1H520.91c-.82,0-1.22-.47-1.22-1.42l3-24.15a1.26,1.26,0,0,1,.51-1,1.58,1.58,0,0,1,.91-.4h60.27a3.91,3.91,0,0,0,2.74-1A4.14,4.14,0,0,0,588.48,67.81Z"/></g></svg>
