<svg xmlns="http://www.w3.org/2000/svg" width="612" height="107.39"><path d="M14.94 20.419h31.752c3.658 0 7.365.686 11.123 2.058 3.756 1.372 7.186 3.447 10.29 6.224 3.103 2.777 5.635 6.271 7.595 10.485s2.94 9.197 2.94 14.945c0 5.75-.965 10.73-2.891 14.945-1.928 4.214-4.41 7.709-7.448 10.485-3.038 2.778-6.403 4.852-10.094 6.224-3.692 1.372-7.269 2.058-10.731 2.058H14.94v-3.332c3.789 0 6.272-.49 7.448-1.47 1.176-.98 1.764-2.646 1.764-4.998V30.219c0-2.352-.588-4.018-1.764-4.998-1.176-.979-3.66-1.47-7.448-1.47v-3.332zm19.208 57.036c0 1.438.113 2.613.343 3.527.228.916.718 1.634 1.47 2.156.75.523 1.796.882 3.136 1.078 1.338.196 3.087.294 5.243.294 4.834 0 8.754-.718 11.76-2.156 3.004-1.436 5.341-3.479 7.007-6.125 1.666-2.646 2.776-5.831 3.332-9.555.554-3.724.833-7.872.833-12.446 0-5.88-.475-10.779-1.421-14.7-.948-3.92-2.386-7.056-4.312-9.407-1.928-2.353-4.312-4.002-7.154-4.949-2.842-.946-6.19-1.421-10.045-1.421-2.156 0-3.904.098-5.243.294-1.34.196-2.386.556-3.136 1.078-.752.523-1.242 1.241-1.47 2.155-.23.916-.343 2.092-.343 3.528v46.649zm34.789 10.388v-3.332c1.96 0 3.609-.261 4.949-.784 1.338-.521 2.45-1.24 3.332-2.156.882-.914 1.617-2.009 2.205-3.282a46.41 46.41 0 0 0 1.666-4.165l19.796-54.097h3.528l21.462 55.175c.718 1.896 1.421 3.446 2.107 4.654.686 1.21 1.453 2.156 2.303 2.843a7.3 7.3 0 0 0 2.793 1.421c1.012.262 2.237.392 3.675.392v3.332h-27.244v-3.332c1.828 0 3.266-.049 4.312-.146 1.044-.099 1.813-.295 2.303-.589s.799-.669.931-1.127c.13-.456.196-1.044.196-1.764 0-.522-.164-1.355-.49-2.499a67.586 67.586 0 0 0-1.274-3.92 112.06 112.06 0 0 0-1.764-4.606c-.654-1.6-1.308-3.119-1.96-4.557H88.634a50.898 50.898 0 0 1-1.372 4.116 207.31 207.31 0 0 0-1.47 3.969c-.458 1.274-.85 2.418-1.176 3.43-.328 1.014-.49 1.879-.49 2.598 0 .915.147 1.699.441 2.352.294.654.833 1.176 1.617 1.568.784.392 1.845.686 3.185.882 1.338.196 3.054.294 5.145.294v3.332H68.937zm41.257-26.656L99.806 35.413l-9.8 25.773h20.188zm59.094-40.768v3.332c-1.96 0-3.544.114-4.753.343-1.209.229-2.156.604-2.842 1.127a4.001 4.001 0 0 0-1.421 2.009c-.262.818-.392 1.813-.392 2.989v47.824c0 1.176.13 2.173.392 2.989.26.817.735 1.486 1.421 2.009.686.523 1.632.898 2.842 1.127 1.208.229 2.793.343 4.753.343v3.332h-28.812v-3.332c1.96 0 3.543-.113 4.753-.343 1.208-.229 2.156-.604 2.842-1.127a4 4 0 0 0 1.421-2.009c.26-.816.392-1.813.392-2.989V30.219c0-1.176-.132-2.171-.392-2.989a4.022 4.022 0 0 0-1.421-2.009c-.686-.522-1.634-.897-2.842-1.127-1.21-.229-2.793-.343-4.753-.343v-3.332h28.812zm54.977 67.424h-51.352v-3.332c3.592 0 5.961-.49 7.105-1.47 1.142-.98 1.715-2.646 1.715-4.998V30.219c0-2.352-.573-4.018-1.715-4.998-1.144-.979-3.447-1.47-6.909-1.47v-3.332h28.028v3.332c-1.96 0-3.545.114-4.753.343-1.21.229-2.156.604-2.842 1.127a4.001 4.001 0 0 0-1.421 2.009c-.262.818-.392 1.813-.392 2.989v47.824c0 2.352.571 4.018 1.715 4.998 1.143.979 2.956 1.47 5.439 1.47 2.09 0 4.263-.245 6.517-.735 2.254-.489 4.41-1.519 6.468-3.087 2.058-1.567 3.969-3.788 5.733-6.664 1.764-2.874 3.168-6.664 4.214-11.367h3.038l-.588 25.185zm-5.292-67.424h27.832v3.332c-2.94 0-5.047.262-6.321.784-1.274.523-1.911 1.372-1.911 2.548 0 .523.277 1.47.833 2.842.554 1.372 1.274 2.94 2.156 4.704s1.862 3.643 2.94 5.635c1.078 1.994 2.107 3.92 3.087 5.782s1.845 3.528 2.597 4.998c.75 1.47 1.257 2.564 1.519 3.283.456-1.045 1.421-2.825 2.891-5.342a371.217 371.217 0 0 0 4.557-8.035 152.208 152.208 0 0 0 4.214-8.184c1.24-2.612 1.862-4.54 1.862-5.782 0-1.044-.605-1.845-1.813-2.4-1.209-.555-3.381-.833-6.517-.833v-3.332h22.442v3.332c-1.764 0-3.202.164-4.312.49a8.002 8.002 0 0 0-2.94 1.567c-.85.72-1.617 1.683-2.303 2.892s-1.487 2.662-2.401 4.36l-13.818 26.166v18.816c0 1.176.13 2.173.392 2.989.26.817.784 1.486 1.568 2.009.784.523 1.862.898 3.234 1.127 1.372.229 3.168.343 5.39.343v3.332h-30.772V84.51c2.156 0 3.886-.113 5.194-.343 1.306-.229 2.335-.604 3.087-1.127.75-.522 1.257-1.191 1.519-2.009.26-.816.392-1.813.392-2.989V59.227l-14.994-29.498c-.654-1.306-1.291-2.352-1.911-3.136-.622-.784-1.291-1.388-2.009-1.813a6.604 6.604 0 0 0-2.401-.833c-.882-.13-1.977-.195-3.283-.195v-3.333zm95.451 9.8c0-2.352-.588-4.018-1.764-4.998-1.176-.979-3.594-1.47-7.251-1.47v-3.332h31.654c4.639 0 8.541.49 11.711 1.47 3.168.98 5.717 2.254 7.645 3.822 1.926 1.567 3.297 3.349 4.115 5.341.816 1.994 1.225 4.003 1.225 6.027 0 2.155-.506 4.133-1.518 5.929-1.014 1.798-2.402 3.365-4.166 4.704-1.764 1.34-3.807 2.369-6.125 3.087-2.32.72-4.787 1.078-7.398 1.078v.196c7.316.262 12.902 1.91 16.758 4.948 3.854 3.038 5.781 7.171 5.781 12.397 0 1.567-.391 3.414-1.176 5.537-.783 2.124-2.057 4.133-3.822 6.026-1.764 1.896-4.066 3.513-6.908 4.852-2.842 1.34-6.32 2.009-10.438 2.009H305.41V84.51c3.658 0 6.076-.49 7.251-1.47 1.176-.98 1.764-2.646 1.764-4.998V30.219zm19.699 20.58c3.266 0 5.961-.31 8.084-.931 2.123-.62 3.789-1.503 4.998-2.646a8.962 8.962 0 0 0 2.5-4.116c.455-1.6.686-3.347.686-5.243 0-5.096-1.34-8.722-4.018-10.878-2.68-2.155-7.023-3.233-13.035-3.233-2.025 0-3.625.132-4.801.392-1.176.262-2.076.605-2.695 1.029-.621.426-1.014.931-1.176 1.519a7.291 7.291 0 0 0-.246 1.96V50.8h9.703zm-9.703 3.332v23.618c0 1.241.148 2.303.441 3.185.295.882.799 1.585 1.52 2.107.719.523 1.746.898 3.086 1.127 1.34.229 3.021.343 5.047.343 3.725 0 6.826-.326 9.311-.979 2.482-.652 4.459-1.617 5.93-2.892 1.469-1.273 2.498-2.857 3.086-4.753.588-1.895.883-4.05.883-6.468 0-4.639-1.078-8.346-3.234-11.123-2.156-2.776-5.652-4.165-10.486-4.165H324.42zM429.182 73.73c0 2.026-.18 3.92-.539 5.685-.359 1.764-.996 3.316-1.91 4.654a9.91 9.91 0 0 1-3.578 3.186c-1.469.784-3.348 1.176-5.635 1.176-3.723 0-6.502-1.453-8.33-4.361-1.83-2.906-2.744-6.614-2.744-11.123 0-3.92-.293-7.056-.881-9.407-.588-2.353-1.504-4.148-2.744-5.391-1.242-1.24-2.811-2.058-4.705-2.449-1.895-.393-4.148-.589-6.762-.589h-3.822v22.933c0 1.176.131 2.173.393 2.989.26.817.75 1.486 1.471 2.009.717.523 1.697.898 2.939 1.127 1.24.229 2.875.343 4.9.343v3.332h-28.813v-3.332c3.725 0 6.174-.49 7.35-1.47 1.176-.98 1.764-2.646 1.764-4.998V30.219c0-2.352-.588-4.018-1.764-4.998-1.176-.979-3.625-1.47-7.35-1.47v-3.332h35.379c4.049 0 7.43.572 10.143 1.715 2.709 1.144 4.883 2.548 6.516 4.214s2.795 3.479 3.48 5.439 1.029 3.789 1.029 5.487c0 3.072-.688 5.701-2.059 7.89-1.373 2.189-3.152 3.969-5.342 5.341s-4.688 2.369-7.496 2.989a39.399 39.399 0 0 1-8.525.931v.196c3.135.523 5.648 1.553 7.545 3.087 1.895 1.535 3.396 3.3 4.508 5.292a27.5 27.5 0 0 1 2.549 6.271c.588 2.19 1.143 4.199 1.666 6.027.521 1.83 1.143 3.332 1.861 4.508s1.764 1.764 3.137 1.764c.652 0 1.207-.26 1.666-.783.455-.522.832-1.177 1.127-1.96.293-.784.504-1.633.637-2.549.131-.914.195-1.764.195-2.548h2.744zm-41.651-22.147c1.438.065 3.104.114 4.998.146 1.895.034 3.984.049 6.273.049 2.219 0 4.277-.195 6.174-.588 1.893-.392 3.543-1.093 4.949-2.106 1.402-1.013 2.498-2.367 3.281-4.067.785-1.698 1.178-3.822 1.178-6.37 0-4.441-1.178-8.036-3.529-10.779-2.352-2.744-6.436-4.116-12.25-4.116-4.248 0-7.154.44-8.721 1.323-1.568.882-2.354 2.336-2.354 4.36v22.148zm70.559-27.832c-1.959 0-3.545.114-4.752.343-1.211.229-2.156.604-2.842 1.127a3.991 3.991 0 0 0-1.422 2.009c-.262.818-.393 1.813-.393 2.989v39.298c0 5.292 1.307 9.311 3.92 12.054 2.613 2.744 6.631 4.116 12.055 4.116 3.592 0 6.631-.49 9.113-1.47 2.482-.98 4.51-2.352 6.076-4.116 1.568-1.764 2.711-3.822 3.432-6.174.717-2.352 1.076-4.9 1.076-7.644V33.159c0-1.307-.098-2.531-.293-3.676a6.134 6.134 0 0 0-1.373-2.988c-.719-.849-1.779-1.52-3.184-2.01-1.406-.489-3.283-.734-5.635-.734v-3.332h23.617v3.332c-2.156 0-3.871.245-5.145.734-1.273.49-2.238 1.161-2.891 2.01-.654.85-1.078 1.847-1.275 2.988a21.891 21.891 0 0 0-.293 3.676v33.907c0 3.528-.605 6.649-1.813 9.359-1.211 2.712-2.908 4.998-5.098 6.86-2.189 1.861-4.77 3.282-7.742 4.263-2.973.979-6.223 1.47-9.75 1.47-3.789 0-7.203-.392-10.24-1.176-3.039-.784-5.637-1.976-7.791-3.577-2.156-1.6-3.822-3.658-4.998-6.174-1.178-2.515-1.766-5.471-1.766-8.869V30.219c0-1.176-.131-2.171-.391-2.989a4.024 4.024 0 0 0-1.422-2.009c-.686-.522-1.633-.897-2.842-1.127-1.209-.229-2.793-.343-4.752-.343v-3.332h28.811v3.332zm71.344-3.332v3.332c-1.961 0-3.545.114-4.754.343-1.209.229-2.156.604-2.842 1.127a4 4 0 0 0-1.42 2.009c-.262.818-.393 1.813-.393 2.989v47.824c0 1.176.131 2.173.393 2.989.26.817.734 1.486 1.42 2.009.686.523 1.633.898 2.842 1.127 1.209.229 2.793.343 4.754.343v3.332h-28.813v-3.332c1.961 0 3.543-.113 4.754-.343 1.207-.229 2.156-.604 2.842-1.127a3.999 3.999 0 0 0 1.42-2.009c.262-.816.393-1.813.393-2.989V30.219c0-1.176-.131-2.171-.393-2.989a4.02 4.02 0 0 0-1.42-2.009c-.686-.522-1.635-.897-2.842-1.127-1.211-.229-2.793-.343-4.754-.343v-3.332h28.813zm21.755 0l35.279 50.47h.197v-40.67c0-1.176-.133-2.171-.393-2.989a3.924 3.924 0 0 0-1.471-2.009c-.719-.522-1.699-.897-2.939-1.127-1.242-.229-2.875-.343-4.9-.343v-3.332h22.344v3.332c-3.463 0-5.75.49-6.859 1.47-1.111.98-1.666 2.646-1.666 4.998v58.212h-3.822l-38.514-54.488h-.195v44.101c0 1.176.129 2.173.391 2.989.262.817.768 1.486 1.52 2.009.75.523 1.797.898 3.137 1.127 1.338.229 3.086.343 5.242.343v3.332h-24.107v-3.332c2.023 0 3.658-.113 4.9-.343 1.24-.229 2.219-.604 2.939-1.127a3.91 3.91 0 0 0 1.469-2.009c.262-.816.393-1.813.393-2.989V27.769c-.783-.914-1.504-1.632-2.156-2.156a8.11 8.11 0 0 0-2.107-1.225 8.384 8.384 0 0 0-2.449-.539 44.868 44.868 0 0 0-3.186-.098v-3.332h16.953z" fill="#fff"/></svg>