<svg id="Layer_1" xmlns="http://www.w3.org/2000/svg" viewBox="-857 495.9 203.2 91.1"><style>.st0{enable-background:new}.st2{fill:#f9f9fa}</style><path d="M-844 576.2V519h1.7v12h.2c.6-1.9 1.4-3.6 2.4-5.2 1.1-1.6 2.3-2.9 3.7-4.1 1.4-1.2 3.1-2.1 4.9-2.7 1.9-.6 3.9-1 6-1 2.8 0 5.4.6 7.6 1.7 2.2 1.1 4.2 2.7 5.7 4.6 1.6 2 2.8 4.3 3.6 7.1.8 2.7 1.2 5.7 1.2 8.9 0 3-.4 5.8-1.2 8.5-.8 2.7-2 5.1-3.5 7.1s-3.4 3.7-5.7 4.9c-2.3 1.2-4.9 1.8-7.8 1.8-4.5 0-8.3-1.2-11.2-3.5-2.9-2.4-4.9-5.5-5.9-9.3h-.2v26.6h-1.5zm26.4-17.1c2.1-1.2 3.8-2.8 5.1-4.8 1.3-2 2.3-4.2 2.9-6.6.6-2.5 1-4.9 1-7.4 0-2.8-.3-5.4-1-7.8-.7-2.5-1.7-4.6-3.1-6.6-1.4-1.9-3.1-3.4-5.1-4.5-2.1-1.1-4.5-1.7-7.3-1.7-2.7 0-5.1.6-7.3 1.7s-4 2.6-5.4 4.5c-1.5 1.9-2.6 4.1-3.4 6.6-.8 2.5-1.2 5.1-1.2 7.9 0 6.7 1.6 11.8 4.7 15.4 3.2 3.6 7.3 5.4 12.5 5.4 3-.3 5.5-.9 7.6-2.1zm18.2 2.5V519h1.7v10.5h.2c.4-1.6 1-3.1 1.8-4.5s1.9-2.6 3.3-3.7 3-1.9 4.9-2.5c1.9-.6 4.1-.9 6.7-.8v1.7c-2.9-.2-5.5.2-7.6 1.2-2.1 1-3.9 2.3-5.3 4-1.4 1.7-2.4 3.6-3.1 5.9-.7 2.2-1 4.5-1 6.8v24.2l-1.6-.2zm21.5-50.9v-8.4h1.7v8.4h-1.7zm0 50.9V519h1.7v42.7h-1.7zm12.4-42.6v10.5h.2c.4-1.7 1-3.2 1.8-4.6.8-1.4 1.9-2.6 3.1-3.7 1.2-1.1 2.6-1.9 4-2.4 1.5-.6 3-.9 4.7-.9 3.3-.1 6.1.7 8.3 2.5 2.2 1.8 3.7 4.3 4.4 7.4h.2c.8-3 2.5-5.4 4.9-7.2s5.3-2.7 8.6-2.7c2.6 0 4.8.4 6.5 1.2 1.7.8 3.1 1.8 4.1 3.2 1.1 1.4 1.8 3 2.2 4.9.4 1.9.7 4 .7 6.4v28.1h-1.7v-28.1c0-2.1-.2-4-.5-5.7-.4-1.7-1-3.2-1.9-4.4-.9-1.2-2.1-2.2-3.7-2.8-1.5-.7-3.4-1-5.8-1-2 0-3.9.4-5.6 1.2-1.7.8-3.1 1.9-4.2 3.3-1.2 1.4-2 3-2.7 4.8-.6 1.8-.9 3.7-.9 5.7v27.1h-1.7v-27.4c0-2-.2-3.9-.5-5.6-.3-1.8-.9-3.3-1.7-4.6-.8-1.3-2-2.4-3.5-3.2-1.5-.8-3.4-1.2-5.8-1.2-2.1 0-4 .5-5.7 1.5-1.7 1-3.2 2.3-4.4 3.9-1.2 1.6-2.1 3.5-2.7 5.7-.6 2.2-1 4.4-1 6.8v24.2h-1.7V519h2zm63.1 29.6c.6 2.5 1.6 4.6 2.9 6.4 1.3 1.8 3 3.3 5.1 4.3 2.1 1.1 4.7 1.6 7.7 1.6 4.5 0 8.2-1.2 11.2-3.5 3-2.4 4.8-5.9 5.5-10.6h1.7c-.6 5-2.6 8.8-5.9 11.6s-7.4 4.1-12.3 4.1c-3.3.1-6.2-.5-8.5-1.6-2.4-1.1-4.3-2.7-5.8-4.7s-2.6-4.4-3.3-7.1c-.7-2.7-1.1-5.7-1.1-8.8 0-3.5.5-6.7 1.6-9.5s2.4-5.1 4.1-7c1.7-1.9 3.7-3.4 6-4.4 2.3-1 4.6-1.5 7-1.5 3.3 0 6.2.6 8.6 1.9 2.4 1.3 4.4 3 5.9 5.1 1.5 2.1 2.6 4.5 3.3 7.2.7 2.7 1 5.5.9 8.5h-35.7c.1 2.9.5 5.6 1.1 8zm31.9-17.1c-.7-2.4-1.8-4.4-3.2-6.2-1.4-1.8-3.2-3.2-5.3-4.2-2.1-1-4.5-1.5-7.3-1.5-2.3 0-4.5.4-6.5 1.3s-3.8 2.2-5.3 3.9c-1.5 1.7-2.8 3.7-3.7 6.1-.9 2.4-1.5 5.1-1.7 8.1h34c.1-2.6-.2-5.1-1-7.5z" fill="#fcfafb"/><g class="st0"><path class="st2" d="M-758.7 574.5c.4 0 .8 0 1 .1.3.1.5.2.7.4s.3.3.4.6c.1.2.1.5.1.8 0 .2 0 .4-.1.5-.1.2-.2.3-.3.5s-.3.3-.5.4c-.2.1-.4.2-.6.2.6.1 1 .3 1.3.6.3.3.4.7.4 1.1 0 .3-.1.6-.2.8s-.3.4-.5.6c-.2.2-.5.3-.8.4-.3.1-.6.1-1 .1h-2.3v-7.1h2.4zm-1.6.4v2.9h1.5c.3 0 .6 0 .8-.1l.6-.3c.2-.1.3-.3.3-.5.1-.2.1-.4.1-.5 0-.5-.2-.8-.5-1.1s-.8-.4-1.4-.4h-1.4zm1.8 6.2c.6 0 1.1-.1 1.4-.4.3-.3.5-.6.5-1.1 0-.2 0-.4-.1-.6-.1-.2-.2-.3-.4-.5l-.6-.3c-.2-.1-.5-.1-.8-.1h-1.8v3h1.8zm6-2.5v2.9h-.5v-2.9l-2.6-4.2h.6l.1.1 2 3.2c0 .1.1.2.1.2s.1.1.1.2c0-.1.1-.1.1-.2s.1-.1.1-.2l2-3.2s0-.1.1-.1h.6l-2.7 4.2zm10.4-3.7h-2.5v6.6h-.5v-6.6h-2.5v-.4h5.5v.4zm6.7-.4v7.1h-.5v-3.4h-4.4v3.4h-.5v-7.1h.5v3.3h4.4v-3.3h.5zm6.3 6.6v.4h-4.2v-7.1h4.2v.4h-3.7v2.9h3.1v.4h-3.1v3h3.7z"/></g><g class="st0"><path class="st2" d="M-719.2 578c0 .5-.1 1-.2 1.5-.2.4-.4.8-.7 1.1s-.7.5-1.1.7-.9.2-1.4.2h-2.6v-7.1h2.6c.5 0 1 .1 1.4.2s.8.4 1.1.7.5.7.7 1.1c.1.6.2 1.1.2 1.6zm-.6 0c0-.5-.1-.9-.2-1.3s-.3-.7-.6-1-.5-.5-.9-.6c-.3-.1-.7-.2-1.2-.2h-2.1v6.2h2.1c.4 0 .8-.1 1.2-.2.4-.1.7-.3.9-.6s.4-.6.6-1 .2-.8.2-1.3z"/></g><g class="st0"><path class="st2" d="M-712.4 581.5h-.5l-.1-.1-.8-2.1h-3.5l-.8 2.1s0 .1-.1.1h-.5l2.9-7.1h.5l2.9 7.1zm-1.5-2.5l-1.4-3.6c0-.1-.1-.3-.1-.4 0 .1 0 .2-.1.2 0 .1 0 .1-.1.2l-1.4 3.6h3.1zm3.2 2.5h-.5v-7.1h.5v7.1z"/></g><g class="st0"><path class="st2" d="M-704.4 581.1v.4h-3.9v-7.1h.5v6.6h3.4z"/></g><g class="st0"><path class="st2" d="M-702 578.6v2.9h-.5v-2.9l-2.6-4.2h.5l.1.1 2 3.2c0 .1.1.2.1.2 0 .1.1.1.1.2 0-.1.1-.1.1-.2s.1-.1.1-.2l2-3.2s0-.1.1-.1h.6l-2.6 4.2zm8.2-4.1c.4 0 .8 0 1 .1.3.1.5.2.7.4s.3.3.4.6c.1.2.1.5.1.8 0 .2 0 .4-.1.5-.1.2-.2.3-.3.5s-.3.3-.5.4c-.2.1-.4.2-.6.2.6.1 1 .3 1.3.6.3.3.4.7.4 1.1 0 .3-.1.6-.2.8s-.3.4-.5.6c-.2.2-.5.3-.8.4-.3.1-.6.1-1 .1h-2.3v-7.1h2.4zm-1.5.4v2.9h1.5c.3 0 .6 0 .8-.1l.6-.3c.2-.1.3-.3.3-.5.1-.2.1-.4.1-.5 0-.5-.2-.8-.5-1.1s-.8-.4-1.4-.4h-1.4zm1.7 6.2c.6 0 1.1-.1 1.4-.4.3-.3.5-.6.5-1.1 0-.2 0-.4-.1-.6-.1-.2-.2-.3-.4-.5l-.6-.3c-.2-.1-.5-.1-.8-.1h-1.8v3h1.8z"/></g><g class="st0"><path class="st2" d="M-684.9 581.5h-.5l-.1-.1-2.3-2.9-.1-.1s-.1 0-.1-.1h-1.2v3.2h-.5v-7.1h1.8c.8 0 1.4.2 1.8.5s.6.8.6 1.4c0 .3 0 .5-.1.7-.1.2-.2.4-.4.6-.2.2-.4.3-.6.4-.2.1-.5.2-.8.2.1 0 .2.1.2.2l2.3 3.1zm-3.2-3.5c.3 0 .6 0 .8-.1.2-.1.5-.2.6-.3.2-.1.3-.3.4-.5.1-.2.1-.4.1-.7 0-.5-.2-.9-.5-1.1s-.8-.4-1.4-.4h-1.3v3.1h1.3z"/></g><g class="st0"><path class="st2" d="M-681.1 581.2c.3 0 .6-.1.9-.2.3-.1.5-.3.7-.5s.3-.5.4-.7c.1-.3.1-.6.1-.9v-4.4h.5v4.4c0 .4-.1.8-.2 1.1-.1.3-.3.6-.5.9s-.5.4-.8.6c-.3.1-.7.2-1.1.2-.4 0-.8-.1-1.1-.2s-.6-.3-.8-.6-.4-.5-.5-.9c-.1-.3-.2-.7-.2-1.1v-4.4h.5v4.4c0 .3 0 .6.1.9.1.3.2.5.4.7.2.2.4.4.7.5s.6.2.9.2zm5.2.3h-.5v-7.1h.5v7.1zm7.6-7v7.1h-.3s-.1 0-.1-.1l-4.6-6.1v6.3h-.5v-7.1h.4s.1 0 .1.1l4.6 6.1v-6.2h.4z"/></g></svg>