<?xml version="1.0" encoding="utf-8"?>
<!-- Generator: Adobe Illustrator 16.0.0, SVG Export Plug-In . SVG Version: 6.00 Build 0)  -->
<!DOCTYPE svg PUBLIC "-//W3C//DTD SVG 1.1//EN" "http://www.w3.org/Graphics/SVG/1.1/DTD/svg11.dtd">
<svg version="1.1" id="Layer_1" xmlns="http://www.w3.org/2000/svg" xmlns:xlink="http://www.w3.org/1999/xlink" x="0px" y="0px"
	 width="203.178px" height="91.102px" viewBox="0 0 203.178 91.102" enable-background="new 0 0 203.178 91.102"
	 xml:space="preserve">
<g enable-background="new    ">
	<path fill="#FCFAFB" d="M12.987,80.323V23.052h1.66v11.952h0.166c0.552-1.881,1.355-3.61,2.407-5.188
		c1.051-1.577,2.295-2.946,3.735-4.108c1.438-1.162,3.084-2.061,4.938-2.697c1.853-0.636,3.859-0.955,6.017-0.955
		c2.822,0,5.354,0.554,7.595,1.66c2.241,1.107,4.15,2.656,5.727,4.648c1.577,1.991,2.78,4.344,3.61,7.055
		c0.83,2.712,1.245,5.673,1.245,8.881c0,2.988-0.402,5.839-1.204,8.549c-0.803,2.712-1.965,5.092-3.486,7.139
		c-1.522,2.047-3.417,3.666-5.686,4.855c-2.27,1.188-4.87,1.784-7.802,1.784c-4.538,0-8.272-1.175-11.205-3.527
		c-2.934-2.352-4.897-5.464-5.893-9.338h-0.166v26.561H12.987z M39.423,63.183c2.075-1.245,3.776-2.85,5.104-4.814
		c1.328-1.963,2.31-4.177,2.946-6.64c0.636-2.462,0.955-4.938,0.955-7.429c0-2.767-0.346-5.381-1.038-7.844
		c-0.692-2.461-1.715-4.647-3.071-6.557c-1.356-1.909-3.071-3.416-5.146-4.523c-2.075-1.106-4.496-1.66-7.263-1.66
		c-2.711,0-5.146,0.554-7.304,1.66c-2.158,1.107-3.971,2.602-5.437,4.481c-1.467,1.882-2.587,4.067-3.361,6.558
		c-0.776,2.49-1.162,5.118-1.162,7.885c0,6.696,1.577,11.827,4.731,15.396c3.154,3.569,7.331,5.354,12.533,5.354
		C34.844,65.05,37.347,64.428,39.423,63.183z"/>
	<path fill="#FCFAFB" d="M57.557,65.714V23.052h1.66v10.541h0.166c0.386-1.604,0.996-3.112,1.826-4.523
		c0.83-1.411,1.937-2.642,3.32-3.693c1.382-1.051,3.029-1.881,4.938-2.49c1.909-0.608,4.136-0.885,6.682-0.83v1.66
		c-2.934-0.166-5.465,0.236-7.595,1.203c-2.131,0.969-3.888,2.297-5.271,3.984c-1.384,1.688-2.407,3.639-3.071,5.852
		c-0.664,2.214-0.996,4.482-0.996,6.806v24.153H57.557z"/>
	<path fill="#FCFAFB" d="M79.053,14.835V6.452h1.66v8.383H79.053z M79.053,65.714V23.052h1.66v42.662H79.053z"/>
	<path fill="#FCFAFB" d="M91.502,23.052v10.541h0.166c0.386-1.66,0.996-3.181,1.826-4.564c0.83-1.383,1.854-2.601,3.071-3.652
		c1.216-1.051,2.559-1.867,4.025-2.448c1.465-0.581,3.03-0.872,4.69-0.872c3.32-0.11,6.1,0.734,8.342,2.531
		c2.24,1.799,3.721,4.275,4.439,7.429h0.166c0.83-2.987,2.462-5.395,4.897-7.221c2.435-1.826,5.312-2.739,8.632-2.739
		c2.6,0,4.758,0.388,6.475,1.162c1.714,0.775,3.098,1.841,4.149,3.195c1.05,1.356,1.798,2.988,2.241,4.897
		c0.441,1.909,0.664,4.025,0.664,6.35v28.054h-1.66V37.66c0-2.103-0.18-4.012-0.539-5.728c-0.361-1.714-0.996-3.181-1.91-4.398
		c-0.912-1.217-2.131-2.158-3.651-2.822c-1.522-0.664-3.444-0.996-5.769-0.996c-2.048,0-3.9,0.402-5.561,1.203
		c-1.66,0.803-3.071,1.896-4.233,3.279c-1.162,1.384-2.048,2.975-2.656,4.772c-0.609,1.799-0.913,3.693-0.913,5.686v27.058h-1.66
		v-27.39c0-1.992-0.152-3.873-0.456-5.645c-0.305-1.771-0.872-3.319-1.702-4.647c-0.829-1.328-1.991-2.379-3.485-3.154
		c-1.494-0.774-3.432-1.162-5.81-1.162c-2.104,0-4.013,0.485-5.728,1.452c-1.716,0.969-3.168,2.27-4.357,3.901
		c-1.19,1.633-2.104,3.527-2.739,5.686c-0.637,2.158-0.955,4.428-0.955,6.806v24.153h-1.66V23.052H91.502z"/>
	<path fill="#FCFAFB" d="M154.624,52.725c0.635,2.463,1.618,4.606,2.946,6.433c1.327,1.825,3.042,3.266,5.146,4.315
		c2.103,1.052,4.676,1.577,7.719,1.577c4.482,0,8.203-1.175,11.164-3.527c2.959-2.352,4.8-5.879,5.52-10.583h1.659
		c-0.608,4.98-2.572,8.84-5.892,11.579c-3.32,2.739-7.416,4.108-12.285,4.108c-3.319,0.055-6.156-0.471-8.507-1.577
		c-2.353-1.106-4.274-2.669-5.769-4.689c-1.494-2.02-2.602-4.399-3.32-7.138c-0.72-2.739-1.078-5.686-1.078-8.84
		c0-3.54,0.524-6.694,1.576-9.462c1.051-2.767,2.435-5.104,4.15-7.014c1.715-1.909,3.706-3.361,5.976-4.357
		c2.269-0.996,4.593-1.494,6.972-1.494c3.32,0,6.184,0.637,8.591,1.909c2.407,1.273,4.37,2.961,5.894,5.063
		c1.521,2.104,2.627,4.51,3.32,7.221c0.69,2.712,0.981,5.533,0.87,8.466h-35.689C153.641,47.593,153.988,50.263,154.624,52.725z
		 M186.537,35.626c-0.72-2.351-1.784-4.411-3.195-6.184c-1.411-1.77-3.169-3.166-5.271-4.191c-2.104-1.022-4.538-1.535-7.305-1.535
		c-2.324,0-4.496,0.443-6.516,1.328c-2.02,0.886-3.79,2.172-5.312,3.859c-1.522,1.688-2.753,3.722-3.693,6.101
		c-0.941,2.38-1.494,5.062-1.66,8.051h34.03C187.616,40.455,187.255,37.979,186.537,35.626z"/>
</g>
</svg>
